<?xml version="1.0" encoding="UTF-8"?>
<!DOCTYPE svg PUBLIC "-//W3C//DTD SVG 1.1//EN" "http://www.w3.org/Graphics/SVG/1.1/DTD/svg11.dtd">
<!-- Creator: CorelDRAW 2019 (64-Bit) -->
<svg xmlns="http://www.w3.org/2000/svg" xml:space="preserve" width="210mm" height="297mm" version="1.1" style="shape-rendering:geometricPrecision; text-rendering:geometricPrecision; image-rendering:optimizeQuality; fill-rule:evenodd; clip-rule:evenodd"
viewBox="0 0 21000 29700"
 xmlns:xlink="http://www.w3.org/1999/xlink">
 <defs>
  <style type="text/css">
   <![CDATA[
    .fil0 {fill:#FEFEFE}
   ]]>
  </style>
 </defs>
 <g id="Layer_x0020_1">
  <metadata id="CorelCorpID_0Corel-Layer"/>
  <g id="_1610209844848">
   <g>
    <g>
     <path class="fil0" d="M19626.55 11359.43c683.61,-1357.04 1373.41,-3015.54 1373.41,-3850.54 0.49,-1741.36 -1408.64,-3154.46 -3149.99,-3158.89 -1741.36,4.39 -3150.49,1417.54 -3149.99,3158.89 0,834.99 689.84,2493.62 1373.41,3850.54 -631.84,235.8 -1120.67,748.29 -1326.4,1390.55l-47.02 0c-193.31,0 -349.99,156.72 -349.99,349.99 0,193.31 156.68,349.99 349.99,349.99l45.49 0c243.67,1004.8 1517.86,1750.01 3104.51,1750.01 1766.42,0 3149.99,-922.52 3149.99,-2100 0,-710.72 -517.08,-1354.33 -1373.41,-1740.54zm-4226.57 -3850.54c-0.9,-1354.91 1095.12,-2454.86 2449.98,-2458.88 1354.91,4.02 2450.88,1103.97 2449.98,2458.88 0,968.13 -1307.7,3748.29 -2156.06,5078.75 -66.53,96.96 -176.57,154.92 -294.16,154.87 -117.59,-0.04 -227.6,-58.04 -294.08,-155.04 -847.92,-1330.29 -2155.66,-4110.44 -2155.66,-5078.58zm2450.03 6991.1c-1327.88,0 -2449.98,-641.03 -2449.98,-1399.98 0,-429.39 383.62,-851.11 997.66,-1118.66 207.66,385.26 404.5,726.1 567.78,982.28 192.08,302.82 525.74,486.36 884.34,486.36 358.6,0.04 692.3,-183.42 884.46,-486.2 163.36,-256.22 360.28,-597.19 567.98,-982.49 614.13,267.54 997.79,689.27 997.79,1118.7 -0.05,758.96 -1122.15,1399.99 -2450.03,1399.99z"/>
     <path class="fil0" d="M19599.98 7499.99c0,-966.49 -783.52,-1750.01 -1750.01,-1750.01 -966.49,0 -1749.97,783.52 -1749.97,1750.01 0,966.49 783.52,1750.01 1750.01,1750.01 966,-1.14 1748.86,-783.97 1749.97,-1750.01zm-2799.97 0c0,-579.88 470.08,-1050 1050,-1050 579.92,0 1050,470.08 1050,1050 0,579.92 -470.12,1050 -1050,1050 -579.68,-0.61 -1049.39,-470.36 -1050,-1050z"/>
     <path class="fil0" d="M7350.03 14499.99c0,-1546.41 -1253.6,-2800.01 -2800.01,-2800.01 -1546.41,0 -2800.01,1253.6 -2800.01,2800.01 0,1546.41 1253.6,2800.01 2800.01,2800.01 1545.67,-1.8 2798.2,-1254.33 2800.01,-2800.01zm-4900.01 0c0,-1159.8 940.2,-2100 2100,-2100 1159.8,0 2100,940.2 2100,2100 0,1159.8 -940.2,2100 -2100,2100 -1159.26,-1.27 -2098.73,-940.73 -2100,-2100z"/>
     <path class="fil0" d="M9100 22899.98l-38.31 0c-188.26,-749.89 -1114.47,-1364.87 -2533.69,-1673.11 1154.46,-2123.79 2572,-5266.97 2572,-6713.55 4.96,-1628.85 -861.2,-3136.09 -2270.99,-3951.93 -1409.79,-815.84 -3148.19,-815.84 -4557.98,0 -1409.79,815.84 -2275.95,2323.08 -2270.99,3951.93 0,1446.58 1417.54,4589.76 2572.04,6713.55 -1596.08,346.66 -2572.04,1080.72 -2572.04,1958.86 0,1233.87 1956.07,2164.23 4549.98,2164.23 2294,0 4086.46,-728.23 4470.86,-1750.01l79.12 0c193.31,0 349.99,-156.68 349.99,-349.99 0,-193.31 -156.69,-349.98 -349.99,-349.98zm-8399.99 -8386.66c-1.27,-2128.99 1721.01,-3857.23 3850.01,-3863.34 2128.95,6.07 3851.28,1734.34 3850.01,3863.34 0,1481.85 -1978.3,5699.97 -3261.06,7711.95 -127.56,202.12 -349.9,324.72 -588.9,324.72 -239.04,0 -461.34,-122.6 -588.9,-324.72 -1282.85,-2011.97 -3261.16,-6230.09 -3261.16,-7711.95zm3850.01 10136.67c-2203.56,0 -3850.01,-772.98 -3850.01,-1464.26 0,-453.39 769.98,-1039.25 2231.86,-1314.26 157.25,273.12 306.14,521.31 439.28,730.12 255.98,403.76 700.79,648.37 1178.87,648.37 478.04,0 922.85,-244.66 1178.87,-648.37 133.14,-208.81 282.02,-457 439.28,-730.12 1461.88,275.01 2231.86,860.88 2231.86,1314.26 -0.01,691.28 -1646.45,1464.26 -3850.01,1464.26z"/>
     <path class="fil0" d="M12432.51 16250c0,-193.31 -156.68,-349.99 -349.99,-349.99l-357.53 0.01c-86.05,0.04 -171.81,-8.9 -256.02,-26.66 -90.81,-19.48 -185.68,-2.05 -263.61,48.52 -77.93,50.57 -132.52,130.1 -151.68,220.99 -40.03,189.08 80.68,374.84 269.68,415.12 132.03,28.01 266.64,42.08 401.62,42.04l357.54 0c193.31,-0.04 349.99,-156.76 349.99,-350.03z"/>
     <path class="fil0" d="M18590.62 16543.22c61.52,-181.9 -35.03,-379.39 -216.36,-442.6l0.01 0.01c-239.74,-81.01 -486.94,-137.89 -737.95,-169.89 -124.2,-16 -247.45,35.56 -323.28,135.19 -75.84,99.63 -92.65,232.19 -44.13,347.61 48.52,115.42 155,196.18 279.23,211.72 204.71,26.09 406.34,72.43 601.9,138.43 182.51,59.84 379.1,-38.56 440.58,-220.47z"/>
     <path class="fil0" d="M19966.82 17964c124.24,-16.61 230.06,-98.44 277.47,-214.43 47.41,-115.99 29.16,-248.51 -47.87,-347.4 -154.34,-199.75 -327.76,-383.99 -517.82,-550.1 -145.56,-126.86 -366.39,-111.85 -493.46,33.51 -127.07,145.36 -112.42,366.19 32.73,493.54 155.98,136.13 298.27,287.19 424.84,451.01 76.25,99.42 199.87,150.53 324.11,133.87z"/>
     <path class="fil0" d="M14499.36 16250c0,-193.31 -156.68,-349.99 -349.99,-349.99l-689.05 0.01c-193.31,0 -349.99,156.68 -349.99,349.99 0,193.31 156.68,349.99 349.99,349.99l689.06 -0.01c193.26,0 349.98,-156.72 349.98,-349.99z"/>
     <path class="fil0" d="M20867.36 18749.7c-32.48,-120.83 -127.07,-215.13 -247.98,-247.24 -120.91,-32.16 -249.83,2.75 -338.01,91.51 -88.18,88.76 -122.27,217.87 -89.37,338.58 53.73,199.42 87.65,403.68 101.19,609.78 12.18,183.83 164.76,326.77 348.96,326.93 7.87,0 15.71,-0.16 23.58,-0.7 192.81,-12.88 338.79,-179.53 326.07,-372.38 -16.7,-252.33 -58.37,-502.36 -124.44,-746.48z"/>
     <path class="fil0" d="M20576.68 20544.82c-182.72,-62.75 -381.73,34.49 -444.49,217.22 -67.27,195.64 -153.6,384.19 -257.7,562.94 -96.92,167.02 -40.28,380.95 126.61,478.16 166.85,97.21 380.91,40.93 478.36,-125.75 127.19,-218.45 232.52,-448.92 314.47,-688.04 62.72,-182.72 -34.53,-381.77 -217.25,-444.53z"/>
     <path class="fil0" d="M11166.52 22899.98l-688.73 0c-193.31,0 -349.99,156.72 -349.99,349.99 0,193.27 156.68,349.99 349.99,349.99l688.73 -0.01c193.31,0 349.99,-156.68 349.99,-349.99 0,-193.31 -156.72,-349.98 -349.99,-349.98z"/>
     <path class="fil0" d="M17344.82 22893.99c-64.6,3.94 -129.57,5.91 -194.82,5.99l-472.38 0c-193.31,0 -349.99,156.72 -349.99,349.99 0,193.27 156.68,349.99 349.99,349.99l472.37 -0.01c79.65,0 158.94,-2.46 237.89,-7.34 124.97,-7.46 236.45,-81.09 292.36,-193.14 55.9,-112.05 47.66,-245.4 -21.53,-349.7 -69.27,-104.31 -188.92,-163.74 -313.89,-155.78z"/>
     <path class="fil0" d="M16565.85 16250c0,-193.31 -156.68,-349.99 -349.99,-349.99l-689.06 0.01c-193.31,0 -349.99,156.68 -349.99,349.99 0,193.31 156.72,349.99 349.99,349.99l689.07 -0.01c193.3,0 349.98,-156.72 349.98,-349.99z"/>
     <path class="fil0" d="M19059.6 22250.42c-164.23,125.96 -340.43,235.51 -526.02,327.1 -173.37,85.52 -244.62,295.39 -159.1,468.77 85.52,173.37 295.39,244.62 468.77,159.1 226.61,-111.89 441.74,-245.72 642.26,-399.57 153.36,-117.59 182.36,-337.27 64.76,-490.67 -117.6,-153.33 -337.28,-182.33 -490.67,-64.73z"/>
     <path class="fil0" d="M13233.34 22899.98l-689.06 0c-193.31,0 -349.99,156.72 -349.99,349.99 0,193.27 156.68,349.99 349.99,349.99l689.06 -0.01c193.31,0 349.99,-156.68 349.99,-349.99 0,-193.31 -156.69,-349.98 -349.99,-349.98z"/>
     <path class="fil0" d="M15299.87 22899.98l-689.07 0c-92.82,-0.04 -181.86,36.83 -247.53,102.5 -65.62,65.62 -102.5,154.67 -102.5,247.53 -0.04,92.82 36.83,181.86 102.5,247.53 65.62,65.62 154.67,102.5 247.53,102.5l689.07 -0.01c193.31,0 349.99,-156.68 349.99,-349.99 0,-193.31 -156.73,-350.06 -349.99,-350.06z"/>
     <path class="fil0" d="M10656.91 13867.49c88.1,0.12 172.96,-33.1 237.56,-92.98 131.74,-121.49 288.38,-212.79 459.05,-267.46 119.11,-37.98 208.93,-136.62 235.59,-258.77 26.66,-122.15 -13.86,-249.25 -106.31,-333.42 -92.45,-84.16 -222.8,-112.63 -341.91,-74.65 -268.24,85.89 -514.5,229.32 -721.55,420.25 -105.78,97.78 -140.89,250.4 -88.39,384.56 52.5,134.16 181.87,222.47 325.96,222.47z"/>
     <path class="fil0" d="M12617.08 13450l688.73 0c193.31,0 349.99,-156.72 349.99,-349.99 0,-193.31 -156.72,-349.99 -349.99,-349.99l-688.73 0c-193.31,0 -349.99,156.72 -349.99,349.99 0,193.27 156.68,349.99 349.99,349.99z"/>
     <path class="fil0" d="M10632.09 15591.29c63.25,-105.12 66.81,-235.68 9.43,-344.12 -83.92,-158.36 -131.74,-333.33 -140.15,-512.37 -11.4,-192.16 -174.4,-339.94 -366.76,-332.55 -193.06,9.56 -341.86,173.66 -332.55,366.76 13.21,281.53 88.63,556.66 220.79,805.63 60.74,114.68 179.89,186.37 309.67,186.29 122.67,-0.16 236.33,-64.51 299.57,-169.64z"/>
    </g>
   </g>
  </g>
  <g id="_1610209843248">
  </g>
  <g id="_1610209841552">
  </g>
  <g id="_1610209842608">
  </g>
  <g id="_1610209841424">
  </g>
  <g id="_1610209839568">
  </g>
  <g id="_1610209840272">
  </g>
  <g id="_1610209840016">
  </g>
  <g id="_1610209839920">
  </g>
  <g id="_1610209837456">
  </g>
  <g id="_1610209837648">
  </g>
  <g id="_1610209838480">
  </g>
  <g id="_1610209835216">
  </g>
  <g id="_1610209836880">
  </g>
  <g id="_1610211343904">
  </g>
  <g id="_1610211356384">
  </g>
 </g>
</svg>
